%TF.GenerationSoftware,KiCad,Pcbnew,9.0.0*%
%TF.CreationDate,2025-03-10T23:10:40+09:00*%
%TF.ProjectId,typec-serial,74797065-632d-4736-9572-69616c2e6b69,rev?*%
%TF.SameCoordinates,Original*%
%TF.FileFunction,Copper,L2,Bot*%
%TF.FilePolarity,Positive*%
%FSLAX46Y46*%
G04 Gerber Fmt 4.6, Leading zero omitted, Abs format (unit mm)*
G04 Created by KiCad (PCBNEW 9.0.0) date 2025-03-10 23:10:40*
%MOMM*%
%LPD*%
G01*
G04 APERTURE LIST*
%TA.AperFunction,ComponentPad*%
%ADD10C,0.700000*%
%TD*%
%TA.AperFunction,ComponentPad*%
%ADD11O,0.900000X2.400000*%
%TD*%
%TA.AperFunction,ComponentPad*%
%ADD12O,0.900000X1.700000*%
%TD*%
%TA.AperFunction,ComponentPad*%
%ADD13R,1.700000X1.700000*%
%TD*%
%TA.AperFunction,ComponentPad*%
%ADD14O,1.700000X1.700000*%
%TD*%
%TA.AperFunction,ViaPad*%
%ADD15C,0.600000*%
%TD*%
%TA.AperFunction,Conductor*%
%ADD16C,0.300000*%
%TD*%
%TA.AperFunction,Conductor*%
%ADD17C,0.400000*%
%TD*%
%TA.AperFunction,Conductor*%
%ADD18C,0.200000*%
%TD*%
G04 APERTURE END LIST*
D10*
%TO.P,J1,A1,GND*%
%TO.N,GND*%
X166043000Y-73113000D03*
%TO.P,J1,A4,VBUS*%
%TO.N,Net-(J1-VBUS)*%
X165193000Y-73113000D03*
%TO.P,J1,A5,CC1*%
%TO.N,Net-(J1-CC1)*%
X164343000Y-73113000D03*
%TO.P,J1,A6,DP1*%
%TO.N,Net-(J1-DP1)*%
X163493000Y-73113000D03*
%TO.P,J1,A7,DN1*%
%TO.N,Net-(J1-DN1)*%
X162643000Y-73113000D03*
%TO.P,J1,A8,SBU1*%
%TO.N,unconnected-(J1-SBU1-PadA8)*%
X161793000Y-73113000D03*
%TO.P,J1,A9,VBUS__1*%
%TO.N,Net-(J1-VBUS)*%
X160943000Y-73113000D03*
%TO.P,J1,A12,GND__1*%
%TO.N,GND*%
X160093000Y-73113000D03*
%TO.P,J1,B1,GND__2*%
X160093000Y-71763000D03*
%TO.P,J1,B4,VBUS__2*%
%TO.N,Net-(J1-VBUS)*%
X160943000Y-71763000D03*
%TO.P,J1,B5,CC2*%
%TO.N,Net-(J1-CC2)*%
X161793000Y-71763000D03*
%TO.P,J1,B6,DP2*%
%TO.N,Net-(J1-DP1)*%
X162643000Y-71763000D03*
%TO.P,J1,B7,DN2*%
%TO.N,Net-(J1-DN1)*%
X163493000Y-71763000D03*
%TO.P,J1,B8,SBU2*%
%TO.N,unconnected-(J1-SBU2-PadB8)*%
X164343000Y-71763000D03*
%TO.P,J1,B9,VBUS__3*%
%TO.N,Net-(J1-VBUS)*%
X165193000Y-71763000D03*
%TO.P,J1,B12,GND__3*%
%TO.N,GND*%
X166043000Y-71763000D03*
D11*
%TO.P,J1,S1,SHELL*%
%TO.N,unconnected-(J1-SHELL-PadS1)_1*%
X167393000Y-72133000D03*
D12*
%TO.N,unconnected-(J1-SHELL-PadS1)_2*%
X167393000Y-68753000D03*
D11*
%TO.N,unconnected-(J1-SHELL-PadS1)*%
X158743000Y-72133000D03*
D12*
%TO.N,unconnected-(J1-SHELL-PadS1)_3*%
X158743000Y-68753000D03*
%TD*%
D13*
%TO.P,GND,1,Pin_1*%
%TO.N,GND*%
X159258000Y-89662000D03*
D14*
%TO.P,GND,2,Pin_2*%
%TO.N,Net-(J2-Pin_2)*%
X161798000Y-89662000D03*
%TO.P,GND,3,Pin_3*%
%TO.N,Net-(J2-Pin_3)*%
X164338000Y-89662000D03*
%TO.P,GND,4,Pin_4*%
%TO.N,Net-(J2-Pin_4)*%
X166878000Y-89662000D03*
%TD*%
D15*
%TO.N,GND*%
X159766000Y-77150000D03*
X159766000Y-77150000D03*
X163600002Y-82042000D03*
%TO.N,Net-(U1-USBDP)*%
X165608000Y-78994000D03*
X159512000Y-80264000D03*
%TO.N,Net-(J2-Pin_2)*%
X165862000Y-81280000D03*
%TO.N,Net-(J2-Pin_3)*%
X166624000Y-83566000D03*
%TO.N,Net-(D2-K)*%
X165729023Y-83471026D03*
X166308000Y-79756000D03*
%TO.N,Net-(J1-VBUS)*%
X163787442Y-81236028D03*
%TD*%
D16*
%TO.N,GND*%
X164469306Y-75902637D02*
X166043000Y-74328943D01*
X163972834Y-82042000D02*
X164469306Y-81545528D01*
X164469306Y-81545528D02*
X164469306Y-75902637D01*
X166043000Y-74328943D02*
X166043000Y-73113000D01*
X163600002Y-82042000D02*
X163972834Y-82042000D01*
D17*
X161036000Y-78420000D02*
X159766000Y-77150000D01*
X161036000Y-78740000D02*
X161036000Y-78420000D01*
X161036000Y-79477998D02*
X161036000Y-78740000D01*
X163600002Y-82042000D02*
X161036000Y-79477998D01*
X166043000Y-71763000D02*
X166043000Y-73113000D01*
D16*
X163600002Y-82042000D02*
X163902124Y-82042000D01*
D17*
%TO.N,Net-(J1-VBUS)*%
X163764625Y-81213211D02*
X163787442Y-81236028D01*
X163764625Y-74753450D02*
X163764625Y-81213211D01*
X165193000Y-73325075D02*
X163764625Y-74753450D01*
X165193000Y-73113000D02*
X165193000Y-73325075D01*
%TO.N,GND*%
X164903075Y-70411000D02*
X166043000Y-71550925D01*
X160093000Y-75873000D02*
X159766000Y-76200000D01*
X160093000Y-73113000D02*
X160093000Y-75873000D01*
D18*
X166182000Y-73252000D02*
X166043000Y-73113000D01*
D17*
X159766000Y-76200000D02*
X159766000Y-77150000D01*
X158811000Y-80554364D02*
X158811000Y-78105000D01*
X166043000Y-71550925D02*
X166043000Y-71763000D01*
X160093000Y-71268026D02*
X160950026Y-70411000D01*
X160093000Y-71763000D02*
X160093000Y-71268026D01*
X158811000Y-80554364D02*
X159258000Y-81001364D01*
X158811000Y-78105000D02*
X159766000Y-77150000D01*
X159258000Y-81001364D02*
X159258000Y-89662000D01*
X160093000Y-73113000D02*
X160093000Y-71763000D01*
D18*
X163600002Y-82042000D02*
X163576000Y-82042000D01*
D17*
X160950026Y-70411000D02*
X164903075Y-70411000D01*
%TO.N,Net-(U1-USBDP)*%
X162245000Y-82997000D02*
X163890366Y-82997000D01*
X163890366Y-82997000D02*
X165070306Y-81817060D01*
X165070306Y-79531694D02*
X165608000Y-78994000D01*
X159512000Y-80264000D02*
X162245000Y-82997000D01*
X165070306Y-81817060D02*
X165070306Y-79531694D01*
D16*
%TO.N,Net-(J1-DP1)*%
X162643000Y-72121636D02*
X163493000Y-72971636D01*
X162643000Y-71763000D02*
X162643000Y-72121636D01*
X163493000Y-72971636D02*
X163493000Y-73113000D01*
D17*
%TO.N,Net-(J2-Pin_2)*%
X161798000Y-86106000D02*
X161798000Y-89662000D01*
X165862000Y-82042000D02*
X161798000Y-86106000D01*
X165862000Y-81280000D02*
X165862000Y-82042000D01*
%TO.N,Net-(J2-Pin_3)*%
X164338000Y-85852000D02*
X166624000Y-83566000D01*
X164338000Y-89662000D02*
X164338000Y-85852000D01*
%TO.N,Net-(D2-K)*%
X166563000Y-80011000D02*
X166308000Y-79756000D01*
X166563000Y-82637049D02*
X166563000Y-80011000D01*
X165729023Y-83471026D02*
X166563000Y-82637049D01*
%TO.N,Net-(J1-VBUS)*%
X161398000Y-71012000D02*
X164654075Y-71012000D01*
X160943000Y-73113000D02*
X160943000Y-71763000D01*
X160943000Y-71467000D02*
X161398000Y-71012000D01*
X164654075Y-71012000D02*
X165193000Y-71550925D01*
X165193000Y-71550925D02*
X165193000Y-71763000D01*
X165193000Y-71763000D02*
X165193000Y-73113000D01*
X160943000Y-71763000D02*
X160943000Y-71467000D01*
%TD*%
M02*
