%TF.GenerationSoftware,KiCad,Pcbnew,9.0.0*%
%TF.CreationDate,2025-03-10T23:10:40+09:00*%
%TF.ProjectId,typec-serial,74797065-632d-4736-9572-69616c2e6b69,rev?*%
%TF.SameCoordinates,Original*%
%TF.FileFunction,Legend,Top*%
%TF.FilePolarity,Positive*%
%FSLAX46Y46*%
G04 Gerber Fmt 4.6, Leading zero omitted, Abs format (unit mm)*
G04 Created by KiCad (PCBNEW 9.0.0) date 2025-03-10 23:10:40*
%MOMM*%
%LPD*%
G01*
G04 APERTURE LIST*
%ADD10C,0.150000*%
%ADD11C,0.120000*%
G04 APERTURE END LIST*
D10*
X162814095Y-85560819D02*
X163385523Y-85560819D01*
X163099809Y-86560819D02*
X163099809Y-85560819D01*
X163623619Y-85560819D02*
X164290285Y-86560819D01*
X164290285Y-85560819D02*
X163623619Y-86560819D01*
X164338095Y-80734819D02*
X164338095Y-81544342D01*
X164338095Y-81544342D02*
X164385714Y-81639580D01*
X164385714Y-81639580D02*
X164433333Y-81687200D01*
X164433333Y-81687200D02*
X164528571Y-81734819D01*
X164528571Y-81734819D02*
X164719047Y-81734819D01*
X164719047Y-81734819D02*
X164814285Y-81687200D01*
X164814285Y-81687200D02*
X164861904Y-81639580D01*
X164861904Y-81639580D02*
X164909523Y-81544342D01*
X164909523Y-81544342D02*
X164909523Y-80734819D01*
X165909523Y-81734819D02*
X165338095Y-81734819D01*
X165623809Y-81734819D02*
X165623809Y-80734819D01*
X165623809Y-80734819D02*
X165528571Y-80877676D01*
X165528571Y-80877676D02*
X165433333Y-80972914D01*
X165433333Y-80972914D02*
X165338095Y-81020533D01*
X167219333Y-86560819D02*
X166886000Y-86084628D01*
X166647905Y-86560819D02*
X166647905Y-85560819D01*
X166647905Y-85560819D02*
X167028857Y-85560819D01*
X167028857Y-85560819D02*
X167124095Y-85608438D01*
X167124095Y-85608438D02*
X167171714Y-85656057D01*
X167171714Y-85656057D02*
X167219333Y-85751295D01*
X167219333Y-85751295D02*
X167219333Y-85894152D01*
X167219333Y-85894152D02*
X167171714Y-85989390D01*
X167171714Y-85989390D02*
X167124095Y-86037009D01*
X167124095Y-86037009D02*
X167028857Y-86084628D01*
X167028857Y-86084628D02*
X166647905Y-86084628D01*
X168076476Y-85560819D02*
X167886000Y-85560819D01*
X167886000Y-85560819D02*
X167790762Y-85608438D01*
X167790762Y-85608438D02*
X167743143Y-85656057D01*
X167743143Y-85656057D02*
X167647905Y-85798914D01*
X167647905Y-85798914D02*
X167600286Y-85989390D01*
X167600286Y-85989390D02*
X167600286Y-86370342D01*
X167600286Y-86370342D02*
X167647905Y-86465580D01*
X167647905Y-86465580D02*
X167695524Y-86513200D01*
X167695524Y-86513200D02*
X167790762Y-86560819D01*
X167790762Y-86560819D02*
X167981238Y-86560819D01*
X167981238Y-86560819D02*
X168076476Y-86513200D01*
X168076476Y-86513200D02*
X168124095Y-86465580D01*
X168124095Y-86465580D02*
X168171714Y-86370342D01*
X168171714Y-86370342D02*
X168171714Y-86132247D01*
X168171714Y-86132247D02*
X168124095Y-86037009D01*
X168124095Y-86037009D02*
X168076476Y-85989390D01*
X168076476Y-85989390D02*
X167981238Y-85941771D01*
X167981238Y-85941771D02*
X167790762Y-85941771D01*
X167790762Y-85941771D02*
X167695524Y-85989390D01*
X167695524Y-85989390D02*
X167647905Y-86037009D01*
X167647905Y-86037009D02*
X167600286Y-86132247D01*
X163155333Y-76559580D02*
X163107714Y-76607200D01*
X163107714Y-76607200D02*
X162964857Y-76654819D01*
X162964857Y-76654819D02*
X162869619Y-76654819D01*
X162869619Y-76654819D02*
X162726762Y-76607200D01*
X162726762Y-76607200D02*
X162631524Y-76511961D01*
X162631524Y-76511961D02*
X162583905Y-76416723D01*
X162583905Y-76416723D02*
X162536286Y-76226247D01*
X162536286Y-76226247D02*
X162536286Y-76083390D01*
X162536286Y-76083390D02*
X162583905Y-75892914D01*
X162583905Y-75892914D02*
X162631524Y-75797676D01*
X162631524Y-75797676D02*
X162726762Y-75702438D01*
X162726762Y-75702438D02*
X162869619Y-75654819D01*
X162869619Y-75654819D02*
X162964857Y-75654819D01*
X162964857Y-75654819D02*
X163107714Y-75702438D01*
X163107714Y-75702438D02*
X163155333Y-75750057D01*
X163488667Y-75654819D02*
X164107714Y-75654819D01*
X164107714Y-75654819D02*
X163774381Y-76035771D01*
X163774381Y-76035771D02*
X163917238Y-76035771D01*
X163917238Y-76035771D02*
X164012476Y-76083390D01*
X164012476Y-76083390D02*
X164060095Y-76131009D01*
X164060095Y-76131009D02*
X164107714Y-76226247D01*
X164107714Y-76226247D02*
X164107714Y-76464342D01*
X164107714Y-76464342D02*
X164060095Y-76559580D01*
X164060095Y-76559580D02*
X164012476Y-76607200D01*
X164012476Y-76607200D02*
X163917238Y-76654819D01*
X163917238Y-76654819D02*
X163631524Y-76654819D01*
X163631524Y-76654819D02*
X163536286Y-76607200D01*
X163536286Y-76607200D02*
X163488667Y-76559580D01*
X162988666Y-69812819D02*
X162988666Y-70527104D01*
X162988666Y-70527104D02*
X162941047Y-70669961D01*
X162941047Y-70669961D02*
X162845809Y-70765200D01*
X162845809Y-70765200D02*
X162702952Y-70812819D01*
X162702952Y-70812819D02*
X162607714Y-70812819D01*
X163988666Y-70812819D02*
X163417238Y-70812819D01*
X163702952Y-70812819D02*
X163702952Y-69812819D01*
X163702952Y-69812819D02*
X163607714Y-69955676D01*
X163607714Y-69955676D02*
X163512476Y-70050914D01*
X163512476Y-70050914D02*
X163417238Y-70098533D01*
X158583333Y-76654819D02*
X158250000Y-76178628D01*
X158011905Y-76654819D02*
X158011905Y-75654819D01*
X158011905Y-75654819D02*
X158392857Y-75654819D01*
X158392857Y-75654819D02*
X158488095Y-75702438D01*
X158488095Y-75702438D02*
X158535714Y-75750057D01*
X158535714Y-75750057D02*
X158583333Y-75845295D01*
X158583333Y-75845295D02*
X158583333Y-75988152D01*
X158583333Y-75988152D02*
X158535714Y-76083390D01*
X158535714Y-76083390D02*
X158488095Y-76131009D01*
X158488095Y-76131009D02*
X158392857Y-76178628D01*
X158392857Y-76178628D02*
X158011905Y-76178628D01*
X159535714Y-76654819D02*
X158964286Y-76654819D01*
X159250000Y-76654819D02*
X159250000Y-75654819D01*
X159250000Y-75654819D02*
X159154762Y-75797676D01*
X159154762Y-75797676D02*
X159059524Y-75892914D01*
X159059524Y-75892914D02*
X158964286Y-75940533D01*
X158648476Y-87484390D02*
X158572286Y-87446295D01*
X158572286Y-87446295D02*
X158458000Y-87446295D01*
X158458000Y-87446295D02*
X158343714Y-87484390D01*
X158343714Y-87484390D02*
X158267524Y-87560580D01*
X158267524Y-87560580D02*
X158229429Y-87636771D01*
X158229429Y-87636771D02*
X158191333Y-87789152D01*
X158191333Y-87789152D02*
X158191333Y-87903438D01*
X158191333Y-87903438D02*
X158229429Y-88055819D01*
X158229429Y-88055819D02*
X158267524Y-88132009D01*
X158267524Y-88132009D02*
X158343714Y-88208200D01*
X158343714Y-88208200D02*
X158458000Y-88246295D01*
X158458000Y-88246295D02*
X158534191Y-88246295D01*
X158534191Y-88246295D02*
X158648476Y-88208200D01*
X158648476Y-88208200D02*
X158686572Y-88170104D01*
X158686572Y-88170104D02*
X158686572Y-87903438D01*
X158686572Y-87903438D02*
X158534191Y-87903438D01*
X159029429Y-88246295D02*
X159029429Y-87446295D01*
X159029429Y-87446295D02*
X159486572Y-88246295D01*
X159486572Y-88246295D02*
X159486572Y-87446295D01*
X159867524Y-88246295D02*
X159867524Y-87446295D01*
X159867524Y-87446295D02*
X160058000Y-87446295D01*
X160058000Y-87446295D02*
X160172286Y-87484390D01*
X160172286Y-87484390D02*
X160248476Y-87560580D01*
X160248476Y-87560580D02*
X160286571Y-87636771D01*
X160286571Y-87636771D02*
X160324667Y-87789152D01*
X160324667Y-87789152D02*
X160324667Y-87903438D01*
X160324667Y-87903438D02*
X160286571Y-88055819D01*
X160286571Y-88055819D02*
X160248476Y-88132009D01*
X160248476Y-88132009D02*
X160172286Y-88208200D01*
X160172286Y-88208200D02*
X160058000Y-88246295D01*
X160058000Y-88246295D02*
X159867524Y-88246295D01*
X159345333Y-79702819D02*
X159012000Y-79226628D01*
X158773905Y-79702819D02*
X158773905Y-78702819D01*
X158773905Y-78702819D02*
X159154857Y-78702819D01*
X159154857Y-78702819D02*
X159250095Y-78750438D01*
X159250095Y-78750438D02*
X159297714Y-78798057D01*
X159297714Y-78798057D02*
X159345333Y-78893295D01*
X159345333Y-78893295D02*
X159345333Y-79036152D01*
X159345333Y-79036152D02*
X159297714Y-79131390D01*
X159297714Y-79131390D02*
X159250095Y-79179009D01*
X159250095Y-79179009D02*
X159154857Y-79226628D01*
X159154857Y-79226628D02*
X158773905Y-79226628D01*
X159678667Y-78702819D02*
X160297714Y-78702819D01*
X160297714Y-78702819D02*
X159964381Y-79083771D01*
X159964381Y-79083771D02*
X160107238Y-79083771D01*
X160107238Y-79083771D02*
X160202476Y-79131390D01*
X160202476Y-79131390D02*
X160250095Y-79179009D01*
X160250095Y-79179009D02*
X160297714Y-79274247D01*
X160297714Y-79274247D02*
X160297714Y-79512342D01*
X160297714Y-79512342D02*
X160250095Y-79607580D01*
X160250095Y-79607580D02*
X160202476Y-79655200D01*
X160202476Y-79655200D02*
X160107238Y-79702819D01*
X160107238Y-79702819D02*
X159821524Y-79702819D01*
X159821524Y-79702819D02*
X159726286Y-79655200D01*
X159726286Y-79655200D02*
X159678667Y-79607580D01*
X165441333Y-76559580D02*
X165393714Y-76607200D01*
X165393714Y-76607200D02*
X165250857Y-76654819D01*
X165250857Y-76654819D02*
X165155619Y-76654819D01*
X165155619Y-76654819D02*
X165012762Y-76607200D01*
X165012762Y-76607200D02*
X164917524Y-76511961D01*
X164917524Y-76511961D02*
X164869905Y-76416723D01*
X164869905Y-76416723D02*
X164822286Y-76226247D01*
X164822286Y-76226247D02*
X164822286Y-76083390D01*
X164822286Y-76083390D02*
X164869905Y-75892914D01*
X164869905Y-75892914D02*
X164917524Y-75797676D01*
X164917524Y-75797676D02*
X165012762Y-75702438D01*
X165012762Y-75702438D02*
X165155619Y-75654819D01*
X165155619Y-75654819D02*
X165250857Y-75654819D01*
X165250857Y-75654819D02*
X165393714Y-75702438D01*
X165393714Y-75702438D02*
X165441333Y-75750057D01*
X166393714Y-76654819D02*
X165822286Y-76654819D01*
X166108000Y-76654819D02*
X166108000Y-75654819D01*
X166108000Y-75654819D02*
X166012762Y-75797676D01*
X166012762Y-75797676D02*
X165917524Y-75892914D01*
X165917524Y-75892914D02*
X165822286Y-75940533D01*
X160615333Y-76559580D02*
X160567714Y-76607200D01*
X160567714Y-76607200D02*
X160424857Y-76654819D01*
X160424857Y-76654819D02*
X160329619Y-76654819D01*
X160329619Y-76654819D02*
X160186762Y-76607200D01*
X160186762Y-76607200D02*
X160091524Y-76511961D01*
X160091524Y-76511961D02*
X160043905Y-76416723D01*
X160043905Y-76416723D02*
X159996286Y-76226247D01*
X159996286Y-76226247D02*
X159996286Y-76083390D01*
X159996286Y-76083390D02*
X160043905Y-75892914D01*
X160043905Y-75892914D02*
X160091524Y-75797676D01*
X160091524Y-75797676D02*
X160186762Y-75702438D01*
X160186762Y-75702438D02*
X160329619Y-75654819D01*
X160329619Y-75654819D02*
X160424857Y-75654819D01*
X160424857Y-75654819D02*
X160567714Y-75702438D01*
X160567714Y-75702438D02*
X160615333Y-75750057D01*
X161472476Y-75988152D02*
X161472476Y-76654819D01*
X161234381Y-75607200D02*
X160996286Y-76321485D01*
X160996286Y-76321485D02*
X161615333Y-76321485D01*
X158329333Y-86560819D02*
X157996000Y-86084628D01*
X157757905Y-86560819D02*
X157757905Y-85560819D01*
X157757905Y-85560819D02*
X158138857Y-85560819D01*
X158138857Y-85560819D02*
X158234095Y-85608438D01*
X158234095Y-85608438D02*
X158281714Y-85656057D01*
X158281714Y-85656057D02*
X158329333Y-85751295D01*
X158329333Y-85751295D02*
X158329333Y-85894152D01*
X158329333Y-85894152D02*
X158281714Y-85989390D01*
X158281714Y-85989390D02*
X158234095Y-86037009D01*
X158234095Y-86037009D02*
X158138857Y-86084628D01*
X158138857Y-86084628D02*
X157757905Y-86084628D01*
X159234095Y-85560819D02*
X158757905Y-85560819D01*
X158757905Y-85560819D02*
X158710286Y-86037009D01*
X158710286Y-86037009D02*
X158757905Y-85989390D01*
X158757905Y-85989390D02*
X158853143Y-85941771D01*
X158853143Y-85941771D02*
X159091238Y-85941771D01*
X159091238Y-85941771D02*
X159186476Y-85989390D01*
X159186476Y-85989390D02*
X159234095Y-86037009D01*
X159234095Y-86037009D02*
X159281714Y-86132247D01*
X159281714Y-86132247D02*
X159281714Y-86370342D01*
X159281714Y-86370342D02*
X159234095Y-86465580D01*
X159234095Y-86465580D02*
X159186476Y-86513200D01*
X159186476Y-86513200D02*
X159091238Y-86560819D01*
X159091238Y-86560819D02*
X158853143Y-86560819D01*
X158853143Y-86560819D02*
X158757905Y-86513200D01*
X158757905Y-86513200D02*
X158710286Y-86465580D01*
X159345333Y-81734819D02*
X159012000Y-81258628D01*
X158773905Y-81734819D02*
X158773905Y-80734819D01*
X158773905Y-80734819D02*
X159154857Y-80734819D01*
X159154857Y-80734819D02*
X159250095Y-80782438D01*
X159250095Y-80782438D02*
X159297714Y-80830057D01*
X159297714Y-80830057D02*
X159345333Y-80925295D01*
X159345333Y-80925295D02*
X159345333Y-81068152D01*
X159345333Y-81068152D02*
X159297714Y-81163390D01*
X159297714Y-81163390D02*
X159250095Y-81211009D01*
X159250095Y-81211009D02*
X159154857Y-81258628D01*
X159154857Y-81258628D02*
X158773905Y-81258628D01*
X160202476Y-81068152D02*
X160202476Y-81734819D01*
X159964381Y-80687200D02*
X159726286Y-81401485D01*
X159726286Y-81401485D02*
X160345333Y-81401485D01*
X167473333Y-76654819D02*
X167140000Y-76178628D01*
X166901905Y-76654819D02*
X166901905Y-75654819D01*
X166901905Y-75654819D02*
X167282857Y-75654819D01*
X167282857Y-75654819D02*
X167378095Y-75702438D01*
X167378095Y-75702438D02*
X167425714Y-75750057D01*
X167425714Y-75750057D02*
X167473333Y-75845295D01*
X167473333Y-75845295D02*
X167473333Y-75988152D01*
X167473333Y-75988152D02*
X167425714Y-76083390D01*
X167425714Y-76083390D02*
X167378095Y-76131009D01*
X167378095Y-76131009D02*
X167282857Y-76178628D01*
X167282857Y-76178628D02*
X166901905Y-76178628D01*
X167854286Y-75750057D02*
X167901905Y-75702438D01*
X167901905Y-75702438D02*
X167997143Y-75654819D01*
X167997143Y-75654819D02*
X168235238Y-75654819D01*
X168235238Y-75654819D02*
X168330476Y-75702438D01*
X168330476Y-75702438D02*
X168378095Y-75750057D01*
X168378095Y-75750057D02*
X168425714Y-75845295D01*
X168425714Y-75845295D02*
X168425714Y-75940533D01*
X168425714Y-75940533D02*
X168378095Y-76083390D01*
X168378095Y-76083390D02*
X167806667Y-76654819D01*
X167806667Y-76654819D02*
X168425714Y-76654819D01*
X159345333Y-83671580D02*
X159297714Y-83719200D01*
X159297714Y-83719200D02*
X159154857Y-83766819D01*
X159154857Y-83766819D02*
X159059619Y-83766819D01*
X159059619Y-83766819D02*
X158916762Y-83719200D01*
X158916762Y-83719200D02*
X158821524Y-83623961D01*
X158821524Y-83623961D02*
X158773905Y-83528723D01*
X158773905Y-83528723D02*
X158726286Y-83338247D01*
X158726286Y-83338247D02*
X158726286Y-83195390D01*
X158726286Y-83195390D02*
X158773905Y-83004914D01*
X158773905Y-83004914D02*
X158821524Y-82909676D01*
X158821524Y-82909676D02*
X158916762Y-82814438D01*
X158916762Y-82814438D02*
X159059619Y-82766819D01*
X159059619Y-82766819D02*
X159154857Y-82766819D01*
X159154857Y-82766819D02*
X159297714Y-82814438D01*
X159297714Y-82814438D02*
X159345333Y-82862057D01*
X159726286Y-82862057D02*
X159773905Y-82814438D01*
X159773905Y-82814438D02*
X159869143Y-82766819D01*
X159869143Y-82766819D02*
X160107238Y-82766819D01*
X160107238Y-82766819D02*
X160202476Y-82814438D01*
X160202476Y-82814438D02*
X160250095Y-82862057D01*
X160250095Y-82862057D02*
X160297714Y-82957295D01*
X160297714Y-82957295D02*
X160297714Y-83052533D01*
X160297714Y-83052533D02*
X160250095Y-83195390D01*
X160250095Y-83195390D02*
X159678667Y-83766819D01*
X159678667Y-83766819D02*
X160297714Y-83766819D01*
X162139333Y-88084819D02*
X161806000Y-87608628D01*
X161567905Y-88084819D02*
X161567905Y-87084819D01*
X161567905Y-87084819D02*
X161948857Y-87084819D01*
X161948857Y-87084819D02*
X162044095Y-87132438D01*
X162044095Y-87132438D02*
X162091714Y-87180057D01*
X162091714Y-87180057D02*
X162139333Y-87275295D01*
X162139333Y-87275295D02*
X162139333Y-87418152D01*
X162139333Y-87418152D02*
X162091714Y-87513390D01*
X162091714Y-87513390D02*
X162044095Y-87561009D01*
X162044095Y-87561009D02*
X161948857Y-87608628D01*
X161948857Y-87608628D02*
X161567905Y-87608628D01*
X162472667Y-87084819D02*
X163139333Y-88084819D01*
X163139333Y-87084819D02*
X162472667Y-88084819D01*
D11*
%TO.C,TX*%
X166314000Y-87106000D02*
X166314000Y-84421000D01*
X166314000Y-84421000D02*
X164394000Y-84421000D01*
X164394000Y-84421000D02*
X164394000Y-87106000D01*
D10*
%TO.C,U1*%
X167100000Y-78580000D02*
X163100000Y-78580000D01*
X167100000Y-83980000D02*
X163100000Y-83980000D01*
D11*
X167690000Y-84310000D02*
X167210000Y-84310000D01*
X167450000Y-83980000D01*
X167690000Y-84310000D01*
G36*
X167690000Y-84310000D02*
G01*
X167210000Y-84310000D01*
X167450000Y-83980000D01*
X167690000Y-84310000D01*
G37*
%TO.C,R6*%
X166651000Y-85878936D02*
X166651000Y-86333064D01*
X168121000Y-85878936D02*
X168121000Y-86333064D01*
%TO.C,C3*%
X162587000Y-75938748D02*
X162587000Y-76461252D01*
X164057000Y-75938748D02*
X164057000Y-76461252D01*
%TO.C,J1*%
X158473000Y-67113000D02*
X158473000Y-64383000D01*
X158473000Y-70713000D02*
X158473000Y-69813000D01*
X167543000Y-73793000D02*
X158593000Y-73793000D01*
X167663000Y-64383000D02*
X158473000Y-64383000D01*
X167663000Y-67113000D02*
X167663000Y-64383000D01*
X167663000Y-70713000D02*
X167663000Y-69813000D01*
%TO.C,R1*%
X158015000Y-75972936D02*
X158015000Y-76427064D01*
X159485000Y-75972936D02*
X159485000Y-76427064D01*
%TO.C,GND*%
X157928000Y-90992000D02*
X157928000Y-89662000D01*
X159258000Y-90992000D02*
X157928000Y-90992000D01*
X160528000Y-88332000D02*
X168208000Y-88332000D01*
X160528000Y-90992000D02*
X160528000Y-88332000D01*
X160528000Y-90992000D02*
X168208000Y-90992000D01*
X168208000Y-90992000D02*
X168208000Y-88332000D01*
%TO.C,R3*%
X159388436Y-78513000D02*
X159842564Y-78513000D01*
X159388436Y-79983000D02*
X159842564Y-79983000D01*
%TO.C,C1*%
X166905000Y-76461252D02*
X166905000Y-75938748D01*
X168375000Y-76461252D02*
X168375000Y-75938748D01*
%TO.C,C4*%
X160047000Y-75938748D02*
X160047000Y-76461252D01*
X161517000Y-75938748D02*
X161517000Y-76461252D01*
%TO.C,R5*%
X157761000Y-85878936D02*
X157761000Y-86333064D01*
X159231000Y-85878936D02*
X159231000Y-86333064D01*
%TO.C,R4*%
X159284936Y-80545000D02*
X159739064Y-80545000D01*
X159284936Y-82015000D02*
X159739064Y-82015000D01*
%TO.C,R2*%
X164873000Y-75972936D02*
X164873000Y-76427064D01*
X166343000Y-75972936D02*
X166343000Y-76427064D01*
%TO.C,C2*%
X159250748Y-82577000D02*
X159773252Y-82577000D01*
X159250748Y-84047000D02*
X159773252Y-84047000D01*
%TO.C,RX*%
X159822000Y-84421000D02*
X159822000Y-87106000D01*
X161742000Y-84421000D02*
X159822000Y-84421000D01*
X161742000Y-87106000D02*
X161742000Y-84421000D01*
%TD*%
M02*
