%TF.GenerationSoftware,KiCad,Pcbnew,9.0.0*%
%TF.CreationDate,2025-03-10T23:10:40+09:00*%
%TF.ProjectId,typec-serial,74797065-632d-4736-9572-69616c2e6b69,rev?*%
%TF.SameCoordinates,Original*%
%TF.FileFunction,Soldermask,Top*%
%TF.FilePolarity,Negative*%
%FSLAX46Y46*%
G04 Gerber Fmt 4.6, Leading zero omitted, Abs format (unit mm)*
G04 Created by KiCad (PCBNEW 9.0.0) date 2025-03-10 23:10:40*
%MOMM*%
%LPD*%
G01*
G04 APERTURE LIST*
G04 Aperture macros list*
%AMRoundRect*
0 Rectangle with rounded corners*
0 $1 Rounding radius*
0 $2 $3 $4 $5 $6 $7 $8 $9 X,Y pos of 4 corners*
0 Add a 4 corners polygon primitive as box body*
4,1,4,$2,$3,$4,$5,$6,$7,$8,$9,$2,$3,0*
0 Add four circle primitives for the rounded corners*
1,1,$1+$1,$2,$3*
1,1,$1+$1,$4,$5*
1,1,$1+$1,$6,$7*
1,1,$1+$1,$8,$9*
0 Add four rect primitives between the rounded corners*
20,1,$1+$1,$2,$3,$4,$5,0*
20,1,$1+$1,$4,$5,$6,$7,0*
20,1,$1+$1,$6,$7,$8,$9,0*
20,1,$1+$1,$8,$9,$2,$3,0*%
G04 Aperture macros list end*
%ADD10RoundRect,0.243750X-0.456250X0.243750X-0.456250X-0.243750X0.456250X-0.243750X0.456250X0.243750X0*%
%ADD11R,1.200000X0.400000*%
%ADD12RoundRect,0.250000X-0.450000X0.262500X-0.450000X-0.262500X0.450000X-0.262500X0.450000X0.262500X0*%
%ADD13RoundRect,0.250000X-0.475000X0.250000X-0.475000X-0.250000X0.475000X-0.250000X0.475000X0.250000X0*%
%ADD14C,0.700000*%
%ADD15O,0.900000X2.400000*%
%ADD16O,0.900000X1.700000*%
%ADD17R,1.700000X1.700000*%
%ADD18O,1.700000X1.700000*%
%ADD19RoundRect,0.250000X-0.262500X-0.450000X0.262500X-0.450000X0.262500X0.450000X-0.262500X0.450000X0*%
%ADD20RoundRect,0.250000X0.475000X-0.250000X0.475000X0.250000X-0.475000X0.250000X-0.475000X-0.250000X0*%
%ADD21RoundRect,0.250000X-0.250000X-0.475000X0.250000X-0.475000X0.250000X0.475000X-0.250000X0.475000X0*%
G04 APERTURE END LIST*
D10*
%TO.C,TX*%
X165354000Y-87043500D03*
X165354000Y-85168500D03*
%TD*%
D11*
%TO.C,U1*%
X167700000Y-83502500D03*
X167700000Y-82867500D03*
X167700000Y-82232500D03*
X167700000Y-81597500D03*
X167700000Y-80962500D03*
X167700000Y-80327500D03*
X167700000Y-79692500D03*
X167700000Y-79057500D03*
X162500000Y-79057500D03*
X162500000Y-79692500D03*
X162500000Y-80327500D03*
X162500000Y-80962500D03*
X162500000Y-81597500D03*
X162500000Y-82232500D03*
X162500000Y-82867500D03*
X162500000Y-83502500D03*
%TD*%
D12*
%TO.C,R6*%
X167386000Y-85193500D03*
X167386000Y-87018500D03*
%TD*%
D13*
%TO.C,C3*%
X163322000Y-75250000D03*
X163322000Y-77150000D03*
%TD*%
D14*
%TO.C,J1*%
X166043000Y-73113000D03*
X165193000Y-73113000D03*
X164343000Y-73113000D03*
X163493000Y-73113000D03*
X162643000Y-73113000D03*
X161793000Y-73113000D03*
X160943000Y-73113000D03*
X160093000Y-73113000D03*
X160093000Y-71763000D03*
X160943000Y-71763000D03*
X161793000Y-71763000D03*
X162643000Y-71763000D03*
X163493000Y-71763000D03*
X164343000Y-71763000D03*
X165193000Y-71763000D03*
X166043000Y-71763000D03*
D15*
X167393000Y-72133000D03*
D16*
X167393000Y-68753000D03*
D15*
X158743000Y-72133000D03*
D16*
X158743000Y-68753000D03*
%TD*%
D12*
%TO.C,R1*%
X158750000Y-75287500D03*
X158750000Y-77112500D03*
%TD*%
D17*
%TO.C,GND*%
X159258000Y-89662000D03*
D18*
X161798000Y-89662000D03*
X164338000Y-89662000D03*
X166878000Y-89662000D03*
%TD*%
D19*
%TO.C,R3*%
X158703000Y-79248000D03*
X160528000Y-79248000D03*
%TD*%
D20*
%TO.C,C1*%
X167640000Y-77150000D03*
X167640000Y-75250000D03*
%TD*%
D13*
%TO.C,C4*%
X160782000Y-75250000D03*
X160782000Y-77150000D03*
%TD*%
D12*
%TO.C,R5*%
X158496000Y-85193500D03*
X158496000Y-87018500D03*
%TD*%
D19*
%TO.C,R4*%
X158599500Y-81280000D03*
X160424500Y-81280000D03*
%TD*%
D12*
%TO.C,R2*%
X165608000Y-75287500D03*
X165608000Y-77112500D03*
%TD*%
D21*
%TO.C,C2*%
X158562000Y-83312000D03*
X160462000Y-83312000D03*
%TD*%
D10*
%TO.C,RX*%
X160782000Y-85168500D03*
X160782000Y-87043500D03*
%TD*%
M02*
