%TF.GenerationSoftware,KiCad,Pcbnew,9.0.0*%
%TF.CreationDate,2025-03-08T20:10:10+09:00*%
%TF.ProjectId,typec-serial,74797065-632d-4736-9572-69616c2e6b69,rev?*%
%TF.SameCoordinates,Original*%
%TF.FileFunction,Legend,Top*%
%TF.FilePolarity,Positive*%
%FSLAX46Y46*%
G04 Gerber Fmt 4.6, Leading zero omitted, Abs format (unit mm)*
G04 Created by KiCad (PCBNEW 9.0.0) date 2025-03-08 20:10:10*
%MOMM*%
%LPD*%
G01*
G04 APERTURE LIST*
%ADD10C,0.160000*%
%ADD11C,0.080000*%
%ADD12C,0.037500*%
%ADD13C,0.150000*%
%ADD14C,0.120000*%
%ADD15C,0.152400*%
G04 APERTURE END LIST*
D10*
X158352882Y-108493775D02*
X158086215Y-108112822D01*
X157895739Y-108493775D02*
X157895739Y-107693775D01*
X157895739Y-107693775D02*
X158200501Y-107693775D01*
X158200501Y-107693775D02*
X158276691Y-107731870D01*
X158276691Y-107731870D02*
X158314786Y-107769965D01*
X158314786Y-107769965D02*
X158352882Y-107846156D01*
X158352882Y-107846156D02*
X158352882Y-107960441D01*
X158352882Y-107960441D02*
X158314786Y-108036632D01*
X158314786Y-108036632D02*
X158276691Y-108074727D01*
X158276691Y-108074727D02*
X158200501Y-108112822D01*
X158200501Y-108112822D02*
X157895739Y-108112822D01*
X158619548Y-107693775D02*
X159152882Y-108493775D01*
X159152882Y-107693775D02*
X158619548Y-108493775D01*
X162019548Y-108493775D02*
X162514786Y-108493775D01*
X162514786Y-108493775D02*
X162248120Y-108798537D01*
X162248120Y-108798537D02*
X162362405Y-108798537D01*
X162362405Y-108798537D02*
X162438596Y-108836632D01*
X162438596Y-108836632D02*
X162476691Y-108874727D01*
X162476691Y-108874727D02*
X162514786Y-108950918D01*
X162514786Y-108950918D02*
X162514786Y-109141394D01*
X162514786Y-109141394D02*
X162476691Y-109217584D01*
X162476691Y-109217584D02*
X162438596Y-109255680D01*
X162438596Y-109255680D02*
X162362405Y-109293775D01*
X162362405Y-109293775D02*
X162133834Y-109293775D01*
X162133834Y-109293775D02*
X162057643Y-109255680D01*
X162057643Y-109255680D02*
X162019548Y-109217584D01*
X162857644Y-109217584D02*
X162895739Y-109255680D01*
X162895739Y-109255680D02*
X162857644Y-109293775D01*
X162857644Y-109293775D02*
X162819548Y-109255680D01*
X162819548Y-109255680D02*
X162857644Y-109217584D01*
X162857644Y-109217584D02*
X162857644Y-109293775D01*
X163162405Y-108493775D02*
X163657643Y-108493775D01*
X163657643Y-108493775D02*
X163390977Y-108798537D01*
X163390977Y-108798537D02*
X163505262Y-108798537D01*
X163505262Y-108798537D02*
X163581453Y-108836632D01*
X163581453Y-108836632D02*
X163619548Y-108874727D01*
X163619548Y-108874727D02*
X163657643Y-108950918D01*
X163657643Y-108950918D02*
X163657643Y-109141394D01*
X163657643Y-109141394D02*
X163619548Y-109217584D01*
X163619548Y-109217584D02*
X163581453Y-109255680D01*
X163581453Y-109255680D02*
X163505262Y-109293775D01*
X163505262Y-109293775D02*
X163276691Y-109293775D01*
X163276691Y-109293775D02*
X163200500Y-109255680D01*
X163200500Y-109255680D02*
X163162405Y-109217584D01*
X163886215Y-108493775D02*
X164152882Y-109293775D01*
X164152882Y-109293775D02*
X164419548Y-108493775D01*
X159781453Y-107693775D02*
X160238596Y-107693775D01*
X160010024Y-108493775D02*
X160010024Y-107693775D01*
X160429072Y-107693775D02*
X160962406Y-108493775D01*
X160962406Y-107693775D02*
X160429072Y-108493775D01*
X154814786Y-108631870D02*
X154738596Y-108593775D01*
X154738596Y-108593775D02*
X154624310Y-108593775D01*
X154624310Y-108593775D02*
X154510024Y-108631870D01*
X154510024Y-108631870D02*
X154433834Y-108708060D01*
X154433834Y-108708060D02*
X154395739Y-108784251D01*
X154395739Y-108784251D02*
X154357643Y-108936632D01*
X154357643Y-108936632D02*
X154357643Y-109050918D01*
X154357643Y-109050918D02*
X154395739Y-109203299D01*
X154395739Y-109203299D02*
X154433834Y-109279489D01*
X154433834Y-109279489D02*
X154510024Y-109355680D01*
X154510024Y-109355680D02*
X154624310Y-109393775D01*
X154624310Y-109393775D02*
X154700501Y-109393775D01*
X154700501Y-109393775D02*
X154814786Y-109355680D01*
X154814786Y-109355680D02*
X154852882Y-109317584D01*
X154852882Y-109317584D02*
X154852882Y-109050918D01*
X154852882Y-109050918D02*
X154700501Y-109050918D01*
X155195739Y-109393775D02*
X155195739Y-108593775D01*
X155195739Y-108593775D02*
X155652882Y-109393775D01*
X155652882Y-109393775D02*
X155652882Y-108593775D01*
X156033834Y-109393775D02*
X156033834Y-108593775D01*
X156033834Y-108593775D02*
X156224310Y-108593775D01*
X156224310Y-108593775D02*
X156338596Y-108631870D01*
X156338596Y-108631870D02*
X156414786Y-108708060D01*
X156414786Y-108708060D02*
X156452881Y-108784251D01*
X156452881Y-108784251D02*
X156490977Y-108936632D01*
X156490977Y-108936632D02*
X156490977Y-109050918D01*
X156490977Y-109050918D02*
X156452881Y-109203299D01*
X156452881Y-109203299D02*
X156414786Y-109279489D01*
X156414786Y-109279489D02*
X156338596Y-109355680D01*
X156338596Y-109355680D02*
X156224310Y-109393775D01*
X156224310Y-109393775D02*
X156033834Y-109393775D01*
D11*
X161679530Y-94383333D02*
X161703340Y-94407142D01*
X161703340Y-94407142D02*
X161727149Y-94478571D01*
X161727149Y-94478571D02*
X161727149Y-94526190D01*
X161727149Y-94526190D02*
X161703340Y-94597618D01*
X161703340Y-94597618D02*
X161655720Y-94645237D01*
X161655720Y-94645237D02*
X161608101Y-94669047D01*
X161608101Y-94669047D02*
X161512863Y-94692856D01*
X161512863Y-94692856D02*
X161441435Y-94692856D01*
X161441435Y-94692856D02*
X161346197Y-94669047D01*
X161346197Y-94669047D02*
X161298578Y-94645237D01*
X161298578Y-94645237D02*
X161250959Y-94597618D01*
X161250959Y-94597618D02*
X161227149Y-94526190D01*
X161227149Y-94526190D02*
X161227149Y-94478571D01*
X161227149Y-94478571D02*
X161250959Y-94407142D01*
X161250959Y-94407142D02*
X161274768Y-94383333D01*
X161727149Y-93907142D02*
X161727149Y-94192856D01*
X161727149Y-94049999D02*
X161227149Y-94049999D01*
X161227149Y-94049999D02*
X161298578Y-94097618D01*
X161298578Y-94097618D02*
X161346197Y-94145237D01*
X161346197Y-94145237D02*
X161370006Y-94192856D01*
D12*
X162603571Y-102618145D02*
X162603571Y-101818145D01*
X162760714Y-102541954D02*
X162753571Y-102580050D01*
X162753571Y-102580050D02*
X162732143Y-102618145D01*
X162732143Y-102618145D02*
X162717857Y-102618145D01*
X162717857Y-102618145D02*
X162696428Y-102580050D01*
X162696428Y-102580050D02*
X162682143Y-102503859D01*
X162682143Y-102503859D02*
X162675000Y-102427669D01*
X162675000Y-102427669D02*
X162667857Y-102275288D01*
X162667857Y-102275288D02*
X162667857Y-102161002D01*
X162667857Y-102161002D02*
X162675000Y-102008621D01*
X162675000Y-102008621D02*
X162682143Y-101932430D01*
X162682143Y-101932430D02*
X162696428Y-101856240D01*
X162696428Y-101856240D02*
X162717857Y-101818145D01*
X162717857Y-101818145D02*
X162732143Y-101818145D01*
X162732143Y-101818145D02*
X162753571Y-101856240D01*
X162753571Y-101856240D02*
X162760714Y-101894335D01*
X162903571Y-102618145D02*
X162817857Y-102618145D01*
X162860714Y-102618145D02*
X162860714Y-101818145D01*
X162860714Y-101818145D02*
X162846428Y-101932430D01*
X162846428Y-101932430D02*
X162832143Y-102008621D01*
X162832143Y-102008621D02*
X162817857Y-102046716D01*
D11*
X163929530Y-98083333D02*
X163953340Y-98107142D01*
X163953340Y-98107142D02*
X163977149Y-98178571D01*
X163977149Y-98178571D02*
X163977149Y-98226190D01*
X163977149Y-98226190D02*
X163953340Y-98297618D01*
X163953340Y-98297618D02*
X163905720Y-98345237D01*
X163905720Y-98345237D02*
X163858101Y-98369047D01*
X163858101Y-98369047D02*
X163762863Y-98392856D01*
X163762863Y-98392856D02*
X163691435Y-98392856D01*
X163691435Y-98392856D02*
X163596197Y-98369047D01*
X163596197Y-98369047D02*
X163548578Y-98345237D01*
X163548578Y-98345237D02*
X163500959Y-98297618D01*
X163500959Y-98297618D02*
X163477149Y-98226190D01*
X163477149Y-98226190D02*
X163477149Y-98178571D01*
X163477149Y-98178571D02*
X163500959Y-98107142D01*
X163500959Y-98107142D02*
X163524768Y-98083333D01*
X163524768Y-97892856D02*
X163500959Y-97869047D01*
X163500959Y-97869047D02*
X163477149Y-97821428D01*
X163477149Y-97821428D02*
X163477149Y-97702380D01*
X163477149Y-97702380D02*
X163500959Y-97654761D01*
X163500959Y-97654761D02*
X163524768Y-97630952D01*
X163524768Y-97630952D02*
X163572387Y-97607142D01*
X163572387Y-97607142D02*
X163620006Y-97607142D01*
X163620006Y-97607142D02*
X163691435Y-97630952D01*
X163691435Y-97630952D02*
X163977149Y-97916666D01*
X163977149Y-97916666D02*
X163977149Y-97607142D01*
X163977149Y-94333333D02*
X163739054Y-94499999D01*
X163977149Y-94619047D02*
X163477149Y-94619047D01*
X163477149Y-94619047D02*
X163477149Y-94428571D01*
X163477149Y-94428571D02*
X163500959Y-94380952D01*
X163500959Y-94380952D02*
X163524768Y-94357142D01*
X163524768Y-94357142D02*
X163572387Y-94333333D01*
X163572387Y-94333333D02*
X163643816Y-94333333D01*
X163643816Y-94333333D02*
X163691435Y-94357142D01*
X163691435Y-94357142D02*
X163715244Y-94380952D01*
X163715244Y-94380952D02*
X163739054Y-94428571D01*
X163739054Y-94428571D02*
X163739054Y-94619047D01*
X163524768Y-94142856D02*
X163500959Y-94119047D01*
X163500959Y-94119047D02*
X163477149Y-94071428D01*
X163477149Y-94071428D02*
X163477149Y-93952380D01*
X163477149Y-93952380D02*
X163500959Y-93904761D01*
X163500959Y-93904761D02*
X163524768Y-93880952D01*
X163524768Y-93880952D02*
X163572387Y-93857142D01*
X163572387Y-93857142D02*
X163620006Y-93857142D01*
X163620006Y-93857142D02*
X163691435Y-93880952D01*
X163691435Y-93880952D02*
X163977149Y-94166666D01*
X163977149Y-94166666D02*
X163977149Y-93857142D01*
X154977149Y-94420833D02*
X154739054Y-94587499D01*
X154977149Y-94706547D02*
X154477149Y-94706547D01*
X154477149Y-94706547D02*
X154477149Y-94516071D01*
X154477149Y-94516071D02*
X154500959Y-94468452D01*
X154500959Y-94468452D02*
X154524768Y-94444642D01*
X154524768Y-94444642D02*
X154572387Y-94420833D01*
X154572387Y-94420833D02*
X154643816Y-94420833D01*
X154643816Y-94420833D02*
X154691435Y-94444642D01*
X154691435Y-94444642D02*
X154715244Y-94468452D01*
X154715244Y-94468452D02*
X154739054Y-94516071D01*
X154739054Y-94516071D02*
X154739054Y-94706547D01*
X154977149Y-93944642D02*
X154977149Y-94230356D01*
X154977149Y-94087499D02*
X154477149Y-94087499D01*
X154477149Y-94087499D02*
X154548578Y-94135118D01*
X154548578Y-94135118D02*
X154596197Y-94182737D01*
X154596197Y-94182737D02*
X154620006Y-94230356D01*
X154977149Y-107245833D02*
X154739054Y-107412499D01*
X154977149Y-107531547D02*
X154477149Y-107531547D01*
X154477149Y-107531547D02*
X154477149Y-107341071D01*
X154477149Y-107341071D02*
X154500959Y-107293452D01*
X154500959Y-107293452D02*
X154524768Y-107269642D01*
X154524768Y-107269642D02*
X154572387Y-107245833D01*
X154572387Y-107245833D02*
X154643816Y-107245833D01*
X154643816Y-107245833D02*
X154691435Y-107269642D01*
X154691435Y-107269642D02*
X154715244Y-107293452D01*
X154715244Y-107293452D02*
X154739054Y-107341071D01*
X154739054Y-107341071D02*
X154739054Y-107531547D01*
X154477149Y-106793452D02*
X154477149Y-107031547D01*
X154477149Y-107031547D02*
X154715244Y-107055356D01*
X154715244Y-107055356D02*
X154691435Y-107031547D01*
X154691435Y-107031547D02*
X154667625Y-106983928D01*
X154667625Y-106983928D02*
X154667625Y-106864880D01*
X154667625Y-106864880D02*
X154691435Y-106817261D01*
X154691435Y-106817261D02*
X154715244Y-106793452D01*
X154715244Y-106793452D02*
X154762863Y-106769642D01*
X154762863Y-106769642D02*
X154881911Y-106769642D01*
X154881911Y-106769642D02*
X154929530Y-106793452D01*
X154929530Y-106793452D02*
X154953340Y-106817261D01*
X154953340Y-106817261D02*
X154977149Y-106864880D01*
X154977149Y-106864880D02*
X154977149Y-106983928D01*
X154977149Y-106983928D02*
X154953340Y-107031547D01*
X154953340Y-107031547D02*
X154929530Y-107055356D01*
X164227149Y-107083333D02*
X163989054Y-107249999D01*
X164227149Y-107369047D02*
X163727149Y-107369047D01*
X163727149Y-107369047D02*
X163727149Y-107178571D01*
X163727149Y-107178571D02*
X163750959Y-107130952D01*
X163750959Y-107130952D02*
X163774768Y-107107142D01*
X163774768Y-107107142D02*
X163822387Y-107083333D01*
X163822387Y-107083333D02*
X163893816Y-107083333D01*
X163893816Y-107083333D02*
X163941435Y-107107142D01*
X163941435Y-107107142D02*
X163965244Y-107130952D01*
X163965244Y-107130952D02*
X163989054Y-107178571D01*
X163989054Y-107178571D02*
X163989054Y-107369047D01*
X163727149Y-106654761D02*
X163727149Y-106749999D01*
X163727149Y-106749999D02*
X163750959Y-106797618D01*
X163750959Y-106797618D02*
X163774768Y-106821428D01*
X163774768Y-106821428D02*
X163846197Y-106869047D01*
X163846197Y-106869047D02*
X163941435Y-106892856D01*
X163941435Y-106892856D02*
X164131911Y-106892856D01*
X164131911Y-106892856D02*
X164179530Y-106869047D01*
X164179530Y-106869047D02*
X164203340Y-106845237D01*
X164203340Y-106845237D02*
X164227149Y-106797618D01*
X164227149Y-106797618D02*
X164227149Y-106702380D01*
X164227149Y-106702380D02*
X164203340Y-106654761D01*
X164203340Y-106654761D02*
X164179530Y-106630952D01*
X164179530Y-106630952D02*
X164131911Y-106607142D01*
X164131911Y-106607142D02*
X164012863Y-106607142D01*
X164012863Y-106607142D02*
X163965244Y-106630952D01*
X163965244Y-106630952D02*
X163941435Y-106654761D01*
X163941435Y-106654761D02*
X163917625Y-106702380D01*
X163917625Y-106702380D02*
X163917625Y-106797618D01*
X163917625Y-106797618D02*
X163941435Y-106845237D01*
X163941435Y-106845237D02*
X163965244Y-106869047D01*
X163965244Y-106869047D02*
X164012863Y-106892856D01*
D13*
X156790476Y-98609795D02*
X156790476Y-99257414D01*
X156790476Y-99257414D02*
X156828571Y-99333604D01*
X156828571Y-99333604D02*
X156866666Y-99371700D01*
X156866666Y-99371700D02*
X156942857Y-99409795D01*
X156942857Y-99409795D02*
X157095238Y-99409795D01*
X157095238Y-99409795D02*
X157171428Y-99371700D01*
X157171428Y-99371700D02*
X157209523Y-99333604D01*
X157209523Y-99333604D02*
X157247619Y-99257414D01*
X157247619Y-99257414D02*
X157247619Y-98609795D01*
X158047618Y-99409795D02*
X157590475Y-99409795D01*
X157819047Y-99409795D02*
X157819047Y-98609795D01*
X157819047Y-98609795D02*
X157742856Y-98724080D01*
X157742856Y-98724080D02*
X157666666Y-98800271D01*
X157666666Y-98800271D02*
X157590475Y-98838366D01*
D11*
X155679530Y-103833333D02*
X155703340Y-103857142D01*
X155703340Y-103857142D02*
X155727149Y-103928571D01*
X155727149Y-103928571D02*
X155727149Y-103976190D01*
X155727149Y-103976190D02*
X155703340Y-104047618D01*
X155703340Y-104047618D02*
X155655720Y-104095237D01*
X155655720Y-104095237D02*
X155608101Y-104119047D01*
X155608101Y-104119047D02*
X155512863Y-104142856D01*
X155512863Y-104142856D02*
X155441435Y-104142856D01*
X155441435Y-104142856D02*
X155346197Y-104119047D01*
X155346197Y-104119047D02*
X155298578Y-104095237D01*
X155298578Y-104095237D02*
X155250959Y-104047618D01*
X155250959Y-104047618D02*
X155227149Y-103976190D01*
X155227149Y-103976190D02*
X155227149Y-103928571D01*
X155227149Y-103928571D02*
X155250959Y-103857142D01*
X155250959Y-103857142D02*
X155274768Y-103833333D01*
X155227149Y-103666666D02*
X155227149Y-103357142D01*
X155227149Y-103357142D02*
X155417625Y-103523809D01*
X155417625Y-103523809D02*
X155417625Y-103452380D01*
X155417625Y-103452380D02*
X155441435Y-103404761D01*
X155441435Y-103404761D02*
X155465244Y-103380952D01*
X155465244Y-103380952D02*
X155512863Y-103357142D01*
X155512863Y-103357142D02*
X155631911Y-103357142D01*
X155631911Y-103357142D02*
X155679530Y-103380952D01*
X155679530Y-103380952D02*
X155703340Y-103404761D01*
X155703340Y-103404761D02*
X155727149Y-103452380D01*
X155727149Y-103452380D02*
X155727149Y-103595237D01*
X155727149Y-103595237D02*
X155703340Y-103642856D01*
X155703340Y-103642856D02*
X155679530Y-103666666D01*
X157227149Y-94420833D02*
X156989054Y-94587499D01*
X157227149Y-94706547D02*
X156727149Y-94706547D01*
X156727149Y-94706547D02*
X156727149Y-94516071D01*
X156727149Y-94516071D02*
X156750959Y-94468452D01*
X156750959Y-94468452D02*
X156774768Y-94444642D01*
X156774768Y-94444642D02*
X156822387Y-94420833D01*
X156822387Y-94420833D02*
X156893816Y-94420833D01*
X156893816Y-94420833D02*
X156941435Y-94444642D01*
X156941435Y-94444642D02*
X156965244Y-94468452D01*
X156965244Y-94468452D02*
X156989054Y-94516071D01*
X156989054Y-94516071D02*
X156989054Y-94706547D01*
X156727149Y-94254166D02*
X156727149Y-93944642D01*
X156727149Y-93944642D02*
X156917625Y-94111309D01*
X156917625Y-94111309D02*
X156917625Y-94039880D01*
X156917625Y-94039880D02*
X156941435Y-93992261D01*
X156941435Y-93992261D02*
X156965244Y-93968452D01*
X156965244Y-93968452D02*
X157012863Y-93944642D01*
X157012863Y-93944642D02*
X157131911Y-93944642D01*
X157131911Y-93944642D02*
X157179530Y-93968452D01*
X157179530Y-93968452D02*
X157203340Y-93992261D01*
X157203340Y-93992261D02*
X157227149Y-94039880D01*
X157227149Y-94039880D02*
X157227149Y-94182737D01*
X157227149Y-94182737D02*
X157203340Y-94230356D01*
X157203340Y-94230356D02*
X157179530Y-94254166D01*
X158679530Y-103833333D02*
X158703340Y-103857142D01*
X158703340Y-103857142D02*
X158727149Y-103928571D01*
X158727149Y-103928571D02*
X158727149Y-103976190D01*
X158727149Y-103976190D02*
X158703340Y-104047618D01*
X158703340Y-104047618D02*
X158655720Y-104095237D01*
X158655720Y-104095237D02*
X158608101Y-104119047D01*
X158608101Y-104119047D02*
X158512863Y-104142856D01*
X158512863Y-104142856D02*
X158441435Y-104142856D01*
X158441435Y-104142856D02*
X158346197Y-104119047D01*
X158346197Y-104119047D02*
X158298578Y-104095237D01*
X158298578Y-104095237D02*
X158250959Y-104047618D01*
X158250959Y-104047618D02*
X158227149Y-103976190D01*
X158227149Y-103976190D02*
X158227149Y-103928571D01*
X158227149Y-103928571D02*
X158250959Y-103857142D01*
X158250959Y-103857142D02*
X158274768Y-103833333D01*
X158393816Y-103404761D02*
X158727149Y-103404761D01*
X158203340Y-103523809D02*
X158560482Y-103642856D01*
X158560482Y-103642856D02*
X158560482Y-103333333D01*
X159477149Y-94495833D02*
X159239054Y-94662499D01*
X159477149Y-94781547D02*
X158977149Y-94781547D01*
X158977149Y-94781547D02*
X158977149Y-94591071D01*
X158977149Y-94591071D02*
X159000959Y-94543452D01*
X159000959Y-94543452D02*
X159024768Y-94519642D01*
X159024768Y-94519642D02*
X159072387Y-94495833D01*
X159072387Y-94495833D02*
X159143816Y-94495833D01*
X159143816Y-94495833D02*
X159191435Y-94519642D01*
X159191435Y-94519642D02*
X159215244Y-94543452D01*
X159215244Y-94543452D02*
X159239054Y-94591071D01*
X159239054Y-94591071D02*
X159239054Y-94781547D01*
X159143816Y-94067261D02*
X159477149Y-94067261D01*
X158953340Y-94186309D02*
X159310482Y-94305356D01*
X159310482Y-94305356D02*
X159310482Y-93995833D01*
D14*
%TO.C,C1*%
X160765000Y-94561252D02*
X160765000Y-94038748D01*
X162235000Y-94561252D02*
X162235000Y-94038748D01*
D15*
%TO.C,IC1*%
X161123599Y-101221300D02*
X161123599Y-103278700D01*
X162436738Y-103278700D02*
X163163260Y-103278700D01*
X164476399Y-103278700D02*
X164476399Y-101221300D01*
D14*
%TO.C,J1*%
X154580000Y-85360000D02*
X154580000Y-82630000D01*
X154580000Y-88960000D02*
X154580000Y-88060000D01*
X163650000Y-92040000D02*
X154700000Y-92040000D01*
X163770000Y-82630000D02*
X154580000Y-82630000D01*
X163770000Y-85360000D02*
X163770000Y-82630000D01*
X163770000Y-88960000D02*
X163770000Y-88060000D01*
%TO.C,D2*%
X160790000Y-105315000D02*
X160790000Y-108000000D01*
X162710000Y-105315000D02*
X160790000Y-105315000D01*
X162710000Y-108000000D02*
X162710000Y-105315000D01*
%TO.C,C2*%
X163015000Y-97738748D02*
X163015000Y-98261252D01*
X164485000Y-97738748D02*
X164485000Y-98261252D01*
%TO.C,R2*%
X163015000Y-94022936D02*
X163015000Y-94477064D01*
X164485000Y-94022936D02*
X164485000Y-94477064D01*
%TO.C,R1*%
X154015000Y-94110436D02*
X154015000Y-94564564D01*
X155485000Y-94110436D02*
X155485000Y-94564564D01*
%TO.C,J2*%
X154050000Y-112080000D02*
X154050000Y-110750000D01*
X155380000Y-112080000D02*
X154050000Y-112080000D01*
X156650000Y-109420000D02*
X164330000Y-109420000D01*
X156650000Y-112080000D02*
X156650000Y-109420000D01*
X156650000Y-112080000D02*
X164330000Y-112080000D01*
X164330000Y-112080000D02*
X164330000Y-109420000D01*
%TO.C,R5*%
X154015000Y-106935436D02*
X154015000Y-107389564D01*
X155485000Y-106935436D02*
X155485000Y-107389564D01*
%TO.C,R6*%
X163265000Y-107227064D02*
X163265000Y-106772936D01*
X164735000Y-107227064D02*
X164735000Y-106772936D01*
D13*
%TO.C,U1*%
X159400000Y-96347500D02*
X155400000Y-96347500D01*
X159400000Y-101747500D02*
X155400000Y-101747500D01*
D14*
X159990000Y-102077500D02*
X159510000Y-102077500D01*
X159750000Y-101747500D01*
X159990000Y-102077500D01*
G36*
X159990000Y-102077500D02*
G01*
X159510000Y-102077500D01*
X159750000Y-101747500D01*
X159990000Y-102077500D01*
G37*
%TO.C,D1*%
X156040000Y-105477500D02*
X156040000Y-108162500D01*
X157960000Y-105477500D02*
X156040000Y-105477500D01*
X157960000Y-108162500D02*
X157960000Y-105477500D01*
%TO.C,C3*%
X154765000Y-104011252D02*
X154765000Y-103488748D01*
X156235000Y-104011252D02*
X156235000Y-103488748D01*
%TO.C,R3*%
X156265000Y-94110436D02*
X156265000Y-94564564D01*
X157735000Y-94110436D02*
X157735000Y-94564564D01*
%TO.C,C4*%
X157765000Y-103488748D02*
X157765000Y-104011252D01*
X159235000Y-103488748D02*
X159235000Y-104011252D01*
%TO.C,R4*%
X158515000Y-94185436D02*
X158515000Y-94639564D01*
X159985000Y-94185436D02*
X159985000Y-94639564D01*
%TD*%
M02*
