%TF.GenerationSoftware,KiCad,Pcbnew,9.0.0*%
%TF.CreationDate,2025-03-08T20:10:10+09:00*%
%TF.ProjectId,typec-serial,74797065-632d-4736-9572-69616c2e6b69,rev?*%
%TF.SameCoordinates,Original*%
%TF.FileFunction,Copper,L2,Bot*%
%TF.FilePolarity,Positive*%
%FSLAX46Y46*%
G04 Gerber Fmt 4.6, Leading zero omitted, Abs format (unit mm)*
G04 Created by KiCad (PCBNEW 9.0.0) date 2025-03-08 20:10:10*
%MOMM*%
%LPD*%
G01*
G04 APERTURE LIST*
%TA.AperFunction,ComponentPad*%
%ADD10C,0.700000*%
%TD*%
%TA.AperFunction,ComponentPad*%
%ADD11O,0.900000X2.400000*%
%TD*%
%TA.AperFunction,ComponentPad*%
%ADD12O,0.900000X1.700000*%
%TD*%
%TA.AperFunction,ComponentPad*%
%ADD13R,1.700000X1.700000*%
%TD*%
%TA.AperFunction,ComponentPad*%
%ADD14O,1.700000X1.700000*%
%TD*%
%TA.AperFunction,ViaPad*%
%ADD15C,0.600000*%
%TD*%
%TA.AperFunction,Conductor*%
%ADD16C,0.400000*%
%TD*%
%TA.AperFunction,Conductor*%
%ADD17C,0.600000*%
%TD*%
%TA.AperFunction,Conductor*%
%ADD18C,0.500000*%
%TD*%
%TA.AperFunction,Conductor*%
%ADD19C,0.200000*%
%TD*%
G04 APERTURE END LIST*
D10*
%TO.P,J1,A1,GND*%
%TO.N,GND*%
X162150000Y-91360000D03*
%TO.P,J1,A4,VBUS*%
%TO.N,Net-(IC1-CONTROL)*%
X161300000Y-91360000D03*
%TO.P,J1,A5,CC1*%
%TO.N,Net-(J1-CC1)*%
X160450000Y-91360000D03*
%TO.P,J1,A6,DP1*%
%TO.N,Net-(J1-DP1)*%
X159600000Y-91360000D03*
%TO.P,J1,A7,DN1*%
%TO.N,Net-(J1-DN1)*%
X158750000Y-91360000D03*
%TO.P,J1,A8,SBU1*%
%TO.N,unconnected-(J1-SBU1-PadA8)*%
X157900000Y-91360000D03*
%TO.P,J1,A9,VBUS__1*%
%TO.N,unconnected-(J1-VBUS__1-PadA9)*%
X157050000Y-91360000D03*
%TO.P,J1,A12,GND__1*%
%TO.N,GND*%
X156200000Y-91360000D03*
%TO.P,J1,B1,GND__2*%
X156200000Y-90010000D03*
%TO.P,J1,B4,VBUS__2*%
%TO.N,unconnected-(J1-VBUS__2-PadB4)*%
X157050000Y-90010000D03*
%TO.P,J1,B5,CC2*%
%TO.N,Net-(J1-CC2)*%
X157900000Y-90010000D03*
%TO.P,J1,B6,DP2*%
%TO.N,Net-(J1-DP1)*%
X158750000Y-90010000D03*
%TO.P,J1,B7,DN2*%
%TO.N,Net-(J1-DN1)*%
X159600000Y-90010000D03*
%TO.P,J1,B8,SBU2*%
%TO.N,unconnected-(J1-SBU2-PadB8)*%
X160450000Y-90010000D03*
%TO.P,J1,B9,VBUS__3*%
%TO.N,unconnected-(J1-VBUS__3-PadB9)*%
X161300000Y-90010000D03*
%TO.P,J1,B12,GND__3*%
%TO.N,GND*%
X162150000Y-90010000D03*
D11*
%TO.P,J1,S1,SHELL*%
X163500000Y-90380000D03*
D12*
X163500000Y-87000000D03*
D11*
X154850000Y-90380000D03*
D12*
X154850000Y-87000000D03*
%TD*%
D13*
%TO.P,J2,1,Pin_1*%
%TO.N,GND*%
X155380000Y-110750000D03*
D14*
%TO.P,J2,2,Pin_2*%
%TO.N,Net-(J2-Pin_2)*%
X157920000Y-110750000D03*
%TO.P,J2,3,Pin_3*%
%TO.N,Net-(J2-Pin_3)*%
X160460000Y-110750000D03*
%TO.P,J2,4,Pin_4*%
%TO.N,Net-(IC1-VOUT)*%
X163000000Y-110750000D03*
%TD*%
D15*
%TO.N,GND*%
X162250000Y-97000000D03*
X156000000Y-99750000D03*
X157400000Y-102800000D03*
%TO.N,Net-(IC1-CONTROL)*%
X156565687Y-99184313D03*
X160500000Y-94250000D03*
X162702730Y-99895800D03*
%TO.N,Net-(IC1-VOUT)*%
X162612500Y-104700000D03*
%TO.N,Net-(J1-CC2)*%
X154750000Y-92250000D03*
%TO.N,Net-(J1-CC1)*%
X163750000Y-92500000D03*
%TO.N,Net-(J1-DP1)*%
X158250000Y-92500000D03*
%TO.N,Net-(J2-Pin_2)*%
X158750000Y-99500000D03*
%TO.N,Net-(J2-Pin_3)*%
X159013502Y-101253059D03*
%TO.N,Net-(D1-K)*%
X156000000Y-100550003D03*
X158250000Y-106250000D03*
%TO.N,Net-(D2-K)*%
X161000000Y-97500000D03*
X160500000Y-107000000D03*
%TD*%
D16*
%TO.N,GND*%
X157400000Y-100958639D02*
X157400000Y-102800000D01*
D17*
X154850000Y-87000000D02*
X163500000Y-87000000D01*
X161949000Y-96699000D02*
X160183786Y-96699000D01*
X162250000Y-97000000D02*
X161949000Y-96699000D01*
X155667217Y-99750000D02*
X156000000Y-99750000D01*
D16*
X156200000Y-91360000D02*
X156200000Y-90010000D01*
D18*
X162150000Y-91360000D02*
X162150000Y-90400000D01*
D16*
X156000000Y-99750000D02*
X156099003Y-99849003D01*
X156099003Y-99849003D02*
X156290364Y-99849003D01*
D17*
X163500000Y-90380000D02*
X162170000Y-90380000D01*
X155220000Y-90010000D02*
X154850000Y-90380000D01*
X162170000Y-90380000D02*
X162150000Y-90400000D01*
X160183786Y-96699000D02*
X156897473Y-99985313D01*
X155199000Y-100218217D02*
X155667217Y-99750000D01*
X155199000Y-110569000D02*
X155199000Y-100218217D01*
D18*
X162150000Y-90400000D02*
X162150000Y-90010000D01*
D17*
X156200000Y-90010000D02*
X155220000Y-90010000D01*
X156897473Y-99985313D02*
X156568096Y-99985313D01*
X163500000Y-90380000D02*
X163500000Y-87000000D01*
X155380000Y-110750000D02*
X155199000Y-110569000D01*
D16*
X156290364Y-99849003D02*
X157400000Y-100958639D01*
%TO.N,Net-(IC1-CONTROL)*%
X162951000Y-97349000D02*
X162951000Y-96709636D01*
X160500000Y-94250000D02*
X160500000Y-95998000D01*
X162239364Y-95998000D02*
X160500000Y-95998000D01*
X159752000Y-95998000D02*
X156565687Y-99184313D01*
X162951000Y-96709636D02*
X162239364Y-95998000D01*
X162702730Y-99895800D02*
X162702730Y-97597270D01*
X162702730Y-97597270D02*
X162951000Y-97349000D01*
X160500000Y-95998000D02*
X159752000Y-95998000D01*
D17*
%TO.N,Net-(IC1-VOUT)*%
X163000000Y-105087500D02*
X163000000Y-110750000D01*
X162612500Y-104700000D02*
X163000000Y-105087500D01*
D19*
%TO.N,Net-(J1-CC2)*%
X157134974Y-88750000D02*
X155000000Y-88750000D01*
X154099000Y-91599000D02*
X154750000Y-92250000D01*
X155000000Y-88750000D02*
X154667926Y-88750000D01*
X154099000Y-89318926D02*
X154099000Y-91599000D01*
X157900000Y-90010000D02*
X157900000Y-89515026D01*
X154667926Y-88750000D02*
X154099000Y-89318926D01*
X157900000Y-89515026D02*
X157134974Y-88750000D01*
D16*
%TO.N,Net-(J1-CC1)*%
X160450000Y-91896338D02*
X161053662Y-92500000D01*
X160450000Y-91360000D02*
X160450000Y-91896338D01*
X161053662Y-92500000D02*
X163750000Y-92500000D01*
%TO.N,Net-(J1-DP1)*%
X159600000Y-91360000D02*
X159600000Y-91854974D01*
D19*
X159600000Y-91200000D02*
X158750000Y-90350000D01*
D16*
X159600000Y-91854974D02*
X158954974Y-92500000D01*
X158954974Y-92500000D02*
X158250000Y-92500000D01*
D19*
X159600000Y-91360000D02*
X159600000Y-91200000D01*
X158750000Y-90350000D02*
X158750000Y-90010000D01*
D16*
%TO.N,Net-(J2-Pin_2)*%
X158312502Y-99937498D02*
X158750000Y-99500000D01*
X158951000Y-104492422D02*
X158312502Y-103853925D01*
X158951000Y-109719000D02*
X158951000Y-104492422D01*
X157920000Y-110750000D02*
X158951000Y-109719000D01*
X158312502Y-103853925D02*
X158312502Y-99937498D01*
%TO.N,Net-(J2-Pin_3)*%
X159013502Y-103704982D02*
X159552000Y-104243478D01*
X159552000Y-109842000D02*
X160460000Y-110750000D01*
X159013502Y-101253059D02*
X159013502Y-103704982D01*
X159552000Y-104243478D02*
X159552000Y-109842000D01*
D19*
X159013502Y-101253059D02*
X159007385Y-101253059D01*
X159007385Y-101253059D02*
X159000000Y-101250000D01*
D16*
%TO.N,Net-(D1-K)*%
X156000000Y-102391365D02*
X156000000Y-100550003D01*
X158250000Y-106250000D02*
X158250000Y-104641365D01*
X158250000Y-104641365D02*
X156000000Y-102391365D01*
%TO.N,Net-(D2-K)*%
X160500000Y-107000000D02*
X160500000Y-98000000D01*
X160500000Y-98000000D02*
X161000000Y-97500000D01*
%TD*%
M02*
