%TF.GenerationSoftware,KiCad,Pcbnew,9.0.0*%
%TF.CreationDate,2025-03-08T20:10:10+09:00*%
%TF.ProjectId,typec-serial,74797065-632d-4736-9572-69616c2e6b69,rev?*%
%TF.SameCoordinates,Original*%
%TF.FileFunction,Copper,L1,Top*%
%TF.FilePolarity,Positive*%
%FSLAX46Y46*%
G04 Gerber Fmt 4.6, Leading zero omitted, Abs format (unit mm)*
G04 Created by KiCad (PCBNEW 9.0.0) date 2025-03-08 20:10:10*
%MOMM*%
%LPD*%
G01*
G04 APERTURE LIST*
G04 Aperture macros list*
%AMRoundRect*
0 Rectangle with rounded corners*
0 $1 Rounding radius*
0 $2 $3 $4 $5 $6 $7 $8 $9 X,Y pos of 4 corners*
0 Add a 4 corners polygon primitive as box body*
4,1,4,$2,$3,$4,$5,$6,$7,$8,$9,$2,$3,0*
0 Add four circle primitives for the rounded corners*
1,1,$1+$1,$2,$3*
1,1,$1+$1,$4,$5*
1,1,$1+$1,$6,$7*
1,1,$1+$1,$8,$9*
0 Add four rect primitives between the rounded corners*
20,1,$1+$1,$2,$3,$4,$5,0*
20,1,$1+$1,$4,$5,$6,$7,0*
20,1,$1+$1,$6,$7,$8,$9,0*
20,1,$1+$1,$8,$9,$2,$3,0*%
G04 Aperture macros list end*
%TA.AperFunction,SMDPad,CuDef*%
%ADD10RoundRect,0.250000X0.475000X-0.250000X0.475000X0.250000X-0.475000X0.250000X-0.475000X-0.250000X0*%
%TD*%
%TA.AperFunction,SMDPad,CuDef*%
%ADD11R,0.508000X0.914400*%
%TD*%
%TA.AperFunction,ComponentPad*%
%ADD12C,0.700000*%
%TD*%
%TA.AperFunction,ComponentPad*%
%ADD13O,0.900000X2.400000*%
%TD*%
%TA.AperFunction,ComponentPad*%
%ADD14O,0.900000X1.700000*%
%TD*%
%TA.AperFunction,SMDPad,CuDef*%
%ADD15RoundRect,0.243750X-0.456250X0.243750X-0.456250X-0.243750X0.456250X-0.243750X0.456250X0.243750X0*%
%TD*%
%TA.AperFunction,SMDPad,CuDef*%
%ADD16RoundRect,0.250000X-0.475000X0.250000X-0.475000X-0.250000X0.475000X-0.250000X0.475000X0.250000X0*%
%TD*%
%TA.AperFunction,SMDPad,CuDef*%
%ADD17RoundRect,0.250000X-0.450000X0.262500X-0.450000X-0.262500X0.450000X-0.262500X0.450000X0.262500X0*%
%TD*%
%TA.AperFunction,ComponentPad*%
%ADD18R,1.700000X1.700000*%
%TD*%
%TA.AperFunction,ComponentPad*%
%ADD19O,1.700000X1.700000*%
%TD*%
%TA.AperFunction,SMDPad,CuDef*%
%ADD20RoundRect,0.250000X0.450000X-0.262500X0.450000X0.262500X-0.450000X0.262500X-0.450000X-0.262500X0*%
%TD*%
%TA.AperFunction,SMDPad,CuDef*%
%ADD21R,1.200000X0.400000*%
%TD*%
%TA.AperFunction,ViaPad*%
%ADD22C,0.600000*%
%TD*%
%TA.AperFunction,Conductor*%
%ADD23C,0.200000*%
%TD*%
%TA.AperFunction,Conductor*%
%ADD24C,0.400000*%
%TD*%
%TA.AperFunction,Conductor*%
%ADD25C,0.600000*%
%TD*%
%TA.AperFunction,Conductor*%
%ADD26C,0.300000*%
%TD*%
G04 APERTURE END LIST*
D10*
%TO.P,C1,1*%
%TO.N,GND*%
X161500000Y-95250000D03*
%TO.P,C1,2*%
%TO.N,Net-(IC1-CONTROL)*%
X161500000Y-93350000D03*
%TD*%
D11*
%TO.P,IC1,1,VIN*%
%TO.N,Net-(IC1-CONTROL)*%
X163750000Y-100853000D03*
%TO.P,IC1,2,GND*%
%TO.N,GND*%
X162799999Y-100853000D03*
%TO.P,IC1,3,CONTROL*%
%TO.N,Net-(IC1-CONTROL)*%
X161849998Y-100853000D03*
%TO.P,IC1,4,CS*%
%TO.N,unconnected-(IC1-CS-Pad4)*%
X161849998Y-103647000D03*
%TO.P,IC1,5,VOUT*%
%TO.N,Net-(IC1-VOUT)*%
X163750000Y-103647000D03*
%TD*%
D12*
%TO.P,J1,A1,GND*%
%TO.N,GND*%
X162150000Y-91360000D03*
%TO.P,J1,A4,VBUS*%
%TO.N,Net-(IC1-CONTROL)*%
X161300000Y-91360000D03*
%TO.P,J1,A5,CC1*%
%TO.N,Net-(J1-CC1)*%
X160450000Y-91360000D03*
%TO.P,J1,A6,DP1*%
%TO.N,Net-(J1-DP1)*%
X159600000Y-91360000D03*
%TO.P,J1,A7,DN1*%
%TO.N,Net-(J1-DN1)*%
X158750000Y-91360000D03*
%TO.P,J1,A8,SBU1*%
%TO.N,unconnected-(J1-SBU1-PadA8)*%
X157900000Y-91360000D03*
%TO.P,J1,A9,VBUS__1*%
%TO.N,unconnected-(J1-VBUS__1-PadA9)*%
X157050000Y-91360000D03*
%TO.P,J1,A12,GND__1*%
%TO.N,GND*%
X156200000Y-91360000D03*
%TO.P,J1,B1,GND__2*%
X156200000Y-90010000D03*
%TO.P,J1,B4,VBUS__2*%
%TO.N,unconnected-(J1-VBUS__2-PadB4)*%
X157050000Y-90010000D03*
%TO.P,J1,B5,CC2*%
%TO.N,Net-(J1-CC2)*%
X157900000Y-90010000D03*
%TO.P,J1,B6,DP2*%
%TO.N,Net-(J1-DP1)*%
X158750000Y-90010000D03*
%TO.P,J1,B7,DN2*%
%TO.N,Net-(J1-DN1)*%
X159600000Y-90010000D03*
%TO.P,J1,B8,SBU2*%
%TO.N,unconnected-(J1-SBU2-PadB8)*%
X160450000Y-90010000D03*
%TO.P,J1,B9,VBUS__3*%
%TO.N,unconnected-(J1-VBUS__3-PadB9)*%
X161300000Y-90010000D03*
%TO.P,J1,B12,GND__3*%
%TO.N,GND*%
X162150000Y-90010000D03*
D13*
%TO.P,J1,S1,SHELL*%
X163500000Y-90380000D03*
D14*
X163500000Y-87000000D03*
D13*
X154850000Y-90380000D03*
D14*
X154850000Y-87000000D03*
%TD*%
D15*
%TO.P,D2,1,K*%
%TO.N,Net-(D2-K)*%
X161750000Y-106062500D03*
%TO.P,D2,2,A*%
%TO.N,Net-(D2-A)*%
X161750000Y-107937500D03*
%TD*%
D16*
%TO.P,C2,1*%
%TO.N,GND*%
X163750000Y-97050000D03*
%TO.P,C2,2*%
%TO.N,Net-(U1-3V3OUT)*%
X163750000Y-98950000D03*
%TD*%
D17*
%TO.P,R2,1*%
%TO.N,Net-(J1-CC1)*%
X163750000Y-93337500D03*
%TO.P,R2,2*%
%TO.N,GND*%
X163750000Y-95162500D03*
%TD*%
%TO.P,R1,1*%
%TO.N,Net-(J1-CC2)*%
X154750000Y-93425000D03*
%TO.P,R1,2*%
%TO.N,GND*%
X154750000Y-95250000D03*
%TD*%
D18*
%TO.P,J2,1,Pin_1*%
%TO.N,GND*%
X155380000Y-110750000D03*
D19*
%TO.P,J2,2,Pin_2*%
%TO.N,Net-(J2-Pin_2)*%
X157920000Y-110750000D03*
%TO.P,J2,3,Pin_3*%
%TO.N,Net-(J2-Pin_3)*%
X160460000Y-110750000D03*
%TO.P,J2,4,Pin_4*%
%TO.N,Net-(IC1-VOUT)*%
X163000000Y-110750000D03*
%TD*%
D17*
%TO.P,R5,1*%
%TO.N,Net-(IC1-VOUT)*%
X154750000Y-106250000D03*
%TO.P,R5,2*%
%TO.N,Net-(D1-A)*%
X154750000Y-108075000D03*
%TD*%
D20*
%TO.P,R6,1*%
%TO.N,Net-(D2-A)*%
X164000000Y-107912500D03*
%TO.P,R6,2*%
%TO.N,Net-(IC1-VOUT)*%
X164000000Y-106087500D03*
%TD*%
D21*
%TO.P,U1,1,TXD*%
%TO.N,Net-(J2-Pin_3)*%
X160000000Y-101270000D03*
%TO.P,U1,2,~{RTS}*%
%TO.N,unconnected-(U1-~{RTS}-Pad2)*%
X160000000Y-100635000D03*
%TO.P,U1,3,VCCIO*%
%TO.N,Net-(U1-3V3OUT)*%
X160000000Y-100000000D03*
%TO.P,U1,4,RXD*%
%TO.N,Net-(J2-Pin_2)*%
X160000000Y-99365000D03*
%TO.P,U1,5,GND*%
%TO.N,GND*%
X160000000Y-98730000D03*
%TO.P,U1,6,~{CTS}*%
%TO.N,unconnected-(U1-~{CTS}-Pad6)*%
X160000000Y-98095000D03*
%TO.P,U1,7,CBUS2*%
%TO.N,Net-(D2-K)*%
X160000000Y-97460000D03*
%TO.P,U1,8,USBDP*%
%TO.N,Net-(U1-USBDP)*%
X160000000Y-96825000D03*
%TO.P,U1,9,USBDM*%
%TO.N,Net-(U1-USBDM)*%
X154800000Y-96825000D03*
%TO.P,U1,10,3V3OUT*%
%TO.N,Net-(U1-3V3OUT)*%
X154800000Y-97460000D03*
%TO.P,U1,11,~{RESET}*%
X154800000Y-98095000D03*
%TO.P,U1,12,VCC*%
%TO.N,Net-(IC1-CONTROL)*%
X154800000Y-98730000D03*
%TO.P,U1,13,GND*%
%TO.N,GND*%
X154800000Y-99365000D03*
%TO.P,U1,14,CBUS1*%
%TO.N,Net-(D1-K)*%
X154800000Y-100000000D03*
%TO.P,U1,15,CBUS0*%
%TO.N,unconnected-(U1-CBUS0-Pad15)*%
X154800000Y-100635000D03*
%TO.P,U1,16,CBUS3*%
%TO.N,unconnected-(U1-CBUS3-Pad16)*%
X154800000Y-101270000D03*
%TD*%
D15*
%TO.P,D1,1,K*%
%TO.N,Net-(D1-K)*%
X157000000Y-106225000D03*
%TO.P,D1,2,A*%
%TO.N,Net-(D1-A)*%
X157000000Y-108100000D03*
%TD*%
D10*
%TO.P,C3,1*%
%TO.N,GND*%
X155500000Y-104700000D03*
%TO.P,C3,2*%
%TO.N,Net-(IC1-CONTROL)*%
X155500000Y-102800000D03*
%TD*%
D17*
%TO.P,R3,1*%
%TO.N,Net-(J1-DP1)*%
X157000000Y-93425000D03*
%TO.P,R3,2*%
%TO.N,Net-(U1-USBDM)*%
X157000000Y-95250000D03*
%TD*%
D16*
%TO.P,C4,1*%
%TO.N,GND*%
X158500000Y-102800000D03*
%TO.P,C4,2*%
%TO.N,Net-(IC1-VOUT)*%
X158500000Y-104700000D03*
%TD*%
D17*
%TO.P,R4,1*%
%TO.N,Net-(J1-DN1)*%
X159250000Y-93500000D03*
%TO.P,R4,2*%
%TO.N,Net-(U1-USBDP)*%
X159250000Y-95325000D03*
%TD*%
D22*
%TO.N,GND*%
X162250000Y-97000000D03*
X156000000Y-99750000D03*
X157400000Y-102800000D03*
%TO.N,Net-(IC1-CONTROL)*%
X156565687Y-99184313D03*
X160500000Y-94250000D03*
X162702730Y-99895800D03*
%TO.N,Net-(IC1-VOUT)*%
X162612500Y-104700000D03*
%TO.N,Net-(J1-CC2)*%
X154750000Y-92250000D03*
%TO.N,Net-(J1-CC1)*%
X163750000Y-92500000D03*
%TO.N,Net-(J1-DP1)*%
X158250000Y-92500000D03*
%TO.N,Net-(J2-Pin_2)*%
X158750000Y-99500000D03*
%TO.N,Net-(J2-Pin_3)*%
X159013502Y-101253059D03*
%TO.N,Net-(D1-K)*%
X156000000Y-100550003D03*
X158250000Y-106250000D03*
%TO.N,Net-(D2-K)*%
X161000000Y-97500000D03*
X160500000Y-107000000D03*
%TD*%
D23*
%TO.N,Net-(U1-3V3OUT)*%
X156495057Y-98095000D02*
X158501057Y-100101000D01*
X159899000Y-100101000D02*
X160000000Y-100000000D01*
X163750000Y-98950000D02*
X162800000Y-98950000D01*
X154800000Y-98095000D02*
X156495057Y-98095000D01*
X161750000Y-100000000D02*
X160000000Y-100000000D01*
X162800000Y-98950000D02*
X161750000Y-100000000D01*
X158501057Y-100101000D02*
X159899000Y-100101000D01*
D24*
X154800000Y-97460000D02*
X154800000Y-98095000D01*
D25*
%TO.N,GND*%
X156200000Y-89550000D02*
X157000000Y-88750000D01*
D23*
X153899000Y-96101000D02*
X153899000Y-99129000D01*
D24*
X155851000Y-94149000D02*
X155851000Y-91709000D01*
D25*
X162250000Y-96000000D02*
X161500000Y-95250000D01*
D24*
X154750000Y-95250000D02*
X155851000Y-94149000D01*
D25*
X162150000Y-89656504D02*
X162150000Y-90010000D01*
D23*
X154750000Y-95250000D02*
X153899000Y-96101000D01*
D25*
X162799999Y-101700001D02*
X162799999Y-100853000D01*
X163750000Y-95162500D02*
X163087500Y-95162500D01*
X157000000Y-88750000D02*
X161243496Y-88750000D01*
D23*
X162526000Y-94224000D02*
X161500000Y-95250000D01*
D25*
X158800000Y-102500000D02*
X162000000Y-102500000D01*
X162300000Y-97050000D02*
X162250000Y-97000000D01*
X162000000Y-102500000D02*
X162799999Y-101700001D01*
D24*
X160000000Y-98730000D02*
X161000000Y-98730000D01*
D25*
X155500000Y-104700000D02*
X157400000Y-102800000D01*
D24*
X155851000Y-91709000D02*
X156200000Y-91360000D01*
X162250000Y-97480000D02*
X162250000Y-97000000D01*
X156000000Y-99693600D02*
X155671400Y-99365000D01*
D23*
X154135000Y-99365000D02*
X154800000Y-99365000D01*
X153899000Y-99129000D02*
X154135000Y-99365000D01*
X162150000Y-91360000D02*
X162526000Y-91736000D01*
D24*
X156000000Y-99750000D02*
X156000000Y-99693600D01*
D25*
X158500000Y-102800000D02*
X158800000Y-102500000D01*
X162250000Y-97000000D02*
X162250000Y-96000000D01*
D24*
X155671400Y-99365000D02*
X154800000Y-99365000D01*
D25*
X163750000Y-97050000D02*
X162300000Y-97050000D01*
D24*
X161000000Y-98730000D02*
X162250000Y-97480000D01*
D25*
X157400000Y-102800000D02*
X158500000Y-102800000D01*
X163087500Y-95162500D02*
X162250000Y-96000000D01*
X156200000Y-90010000D02*
X156200000Y-89550000D01*
X154850000Y-87000000D02*
X154850000Y-90380000D01*
X161243496Y-88750000D02*
X162150000Y-89656504D01*
D23*
X162526000Y-91736000D02*
X162526000Y-94224000D01*
D24*
%TO.N,Net-(IC1-CONTROL)*%
X161400000Y-93350000D02*
X160500000Y-94250000D01*
D26*
X162492010Y-99895800D02*
X162702730Y-99895800D01*
D24*
X161500000Y-93350000D02*
X161400000Y-93350000D01*
D26*
X163360199Y-100000000D02*
X163750000Y-100389801D01*
D23*
X161300000Y-91360000D02*
X161300000Y-93150000D01*
X161300000Y-93150000D02*
X161500000Y-93350000D01*
X154800000Y-98730000D02*
X156111374Y-98730000D01*
X156111374Y-98730000D02*
X156565687Y-99184313D01*
D26*
X161849998Y-100537812D02*
X162387810Y-100000000D01*
X162387810Y-100000000D02*
X162492010Y-99895800D01*
D23*
X156601000Y-101699000D02*
X155500000Y-102800000D01*
D26*
X161849998Y-100853000D02*
X161849998Y-100537812D01*
X163750000Y-100389801D02*
X163750000Y-100853000D01*
D23*
X156601000Y-99219626D02*
X156601000Y-101699000D01*
X156565687Y-99184313D02*
X156601000Y-99219626D01*
D26*
X162387810Y-100000000D02*
X163360199Y-100000000D01*
D23*
%TO.N,Net-(IC1-VOUT)*%
X155501340Y-106250000D02*
X157051340Y-104700000D01*
X157051340Y-104700000D02*
X158500000Y-104700000D01*
D25*
X162612500Y-104700000D02*
X164000000Y-106087500D01*
X162697000Y-104700000D02*
X163750000Y-103647000D01*
D23*
X164000000Y-106087500D02*
X164000000Y-106003000D01*
X154750000Y-106250000D02*
X155501340Y-106250000D01*
D25*
X162612500Y-104700000D02*
X162697000Y-104700000D01*
X158500000Y-104700000D02*
X162612500Y-104700000D01*
D23*
%TO.N,Net-(J1-CC2)*%
X154750000Y-92250000D02*
X154750000Y-93425000D01*
%TO.N,Net-(J1-CC1)*%
X163750000Y-92500000D02*
X163750000Y-93337500D01*
%TO.N,Net-(U1-USBDP)*%
X160000000Y-96075000D02*
X159250000Y-95325000D01*
X160000000Y-96825000D02*
X160000000Y-96075000D01*
%TO.N,Net-(J1-DP1)*%
X157325000Y-93425000D02*
X158250000Y-92500000D01*
X157000000Y-93425000D02*
X157325000Y-93425000D01*
%TO.N,Net-(U1-USBDM)*%
X154800000Y-96700000D02*
X154800000Y-96825000D01*
X156250000Y-95250000D02*
X154800000Y-96700000D01*
X157000000Y-95250000D02*
X156250000Y-95250000D01*
%TO.N,Net-(J1-DN1)*%
X158750000Y-90930654D02*
X158750000Y-91360000D01*
X158750000Y-91360000D02*
X158750000Y-91750000D01*
X158750000Y-91750000D02*
X159250000Y-92250000D01*
X159600000Y-90010000D02*
X159600000Y-90080654D01*
X159250000Y-92250000D02*
X159250000Y-93500000D01*
X159000000Y-93250000D02*
X159250000Y-93500000D01*
X159600000Y-90080654D02*
X158750000Y-90930654D01*
%TO.N,Net-(J2-Pin_2)*%
X158750000Y-99500000D02*
X158885000Y-99365000D01*
X158885000Y-99365000D02*
X160000000Y-99365000D01*
%TO.N,Net-(J2-Pin_3)*%
X159020000Y-101270000D02*
X160000000Y-101270000D01*
X159013502Y-101253059D02*
X159013502Y-101263502D01*
X159013502Y-101263502D02*
X159020000Y-101270000D01*
D25*
%TO.N,Net-(D1-A)*%
X157000000Y-108075000D02*
X154750000Y-108075000D01*
D23*
%TO.N,Net-(D1-K)*%
X155400057Y-100000000D02*
X155950060Y-100550003D01*
X155950060Y-100550003D02*
X156000000Y-100550003D01*
X154800000Y-100000000D02*
X155400057Y-100000000D01*
X157000000Y-106250000D02*
X158250000Y-106250000D01*
D25*
%TO.N,Net-(D2-A)*%
X164000000Y-107912500D02*
X161750000Y-107912500D01*
D23*
%TO.N,Net-(D2-K)*%
X160960000Y-97460000D02*
X161000000Y-97500000D01*
D24*
X161750000Y-106087500D02*
X161412500Y-106087500D01*
X161412500Y-106087500D02*
X160500000Y-107000000D01*
D23*
X160000000Y-97460000D02*
X160960000Y-97460000D01*
%TD*%
M02*
